<svg width="27" height="26" viewBox="0 0 27 26" fill="none" xmlns="http://www.w3.org/2000/svg">
<path d="M21.9298 0H5.99143C4.65567 0 3.37461 0.530399 2.43007 1.47452C1.48554 2.41863 0.95491 3.69913 0.95491 5.03431V20.9657C0.95491 22.3009 1.48554 23.5814 2.43007 24.5255C3.37461 25.4696 4.65567 26 5.99143 26H21.9298C23.2656 26 24.5466 25.4696 25.4912 24.5255C26.4357 23.5814 26.9663 22.3009 26.9663 20.9657V5.03431C26.9663 3.69913 26.4357 2.41863 25.4912 1.47452C24.5466 0.530399 23.2656 0 21.9298 0ZM5.99143 1.43913H21.9298C22.8484 1.439 23.7322 1.79019 24.4 2.42068C25.0678 3.05116 25.469 3.91315 25.5212 4.82986L25.5266 5.03431V20.9657C25.5267 21.8839 25.1753 22.7673 24.5446 23.4348C23.9138 24.1024 23.0515 24.5033 22.1343 24.5556L21.9298 24.5609H15.7231L15.7245 14.2028H19.2482L19.3385 12.2725H15.7258V9.01981C15.7258 7.62051 16.2371 6.82527 17.6703 6.75888L17.8708 6.7549H18.426L19.296 6.76021L19.3398 4.9905C18.8042 4.94902 18.2672 4.9282 17.73 4.9281C15.1294 4.9281 13.7428 6.34069 13.6525 8.38123L13.6485 8.59365V12.2711H11.178V14.2028H13.6485V24.5609H5.99143C5.07284 24.561 4.189 24.2098 3.52119 23.5793C2.85339 22.9488 2.45223 22.0868 2.39999 21.1701L2.39468 20.9657V5.03431C2.39455 4.11612 2.74589 3.23267 3.37665 2.56516C4.00741 1.89764 4.86978 1.49666 5.78689 1.44444L5.99143 1.43913H21.9298H5.99143Z" fill="white"/>
</svg>
