<svg width="27" height="26" viewBox="0 0 27 26" fill="none" xmlns="http://www.w3.org/2000/svg">
<path d="M21.0576 0H5.11921C3.78344 0 2.50238 0.530399 1.55785 1.47452C0.61332 2.41863 0.0826874 3.69913 0.0826874 5.03431V20.9657C0.0826874 22.3009 0.61332 23.5814 1.55785 24.5255C2.50238 25.4696 3.78344 26 5.11921 26H21.0576C22.3933 26 23.6744 25.4696 24.6189 24.5255C25.5635 23.5814 26.0941 22.3009 26.0941 20.9657V5.03431C26.0941 3.69913 25.5635 2.41863 24.6189 1.47452C23.6744 0.530399 22.3933 0 21.0576 0ZM21.0576 1.43913C21.9762 1.439 22.86 1.79019 23.5278 2.42068C24.1956 3.05116 24.5968 3.91315 24.649 4.82986L24.6543 5.03431V20.9657C24.6545 21.8839 24.3031 22.7673 23.6724 23.4348C23.0416 24.1024 22.1792 24.5033 21.2621 24.5556L21.0576 24.5609H5.11921C4.20061 24.561 3.31678 24.2098 2.64897 23.5793C1.98117 22.9488 1.58001 22.0868 1.52777 21.1701L1.52245 20.9657V5.03431C1.52232 4.11612 1.87367 3.23267 2.50443 2.56516C3.13519 1.89764 3.99756 1.49666 4.91467 1.44444L5.11921 1.43913H21.0576ZM13.0884 6.96998C11.4884 6.96998 9.954 7.60528 8.82265 8.73613C7.69131 9.86698 7.05572 11.4007 7.05572 13C7.05572 14.5993 7.69131 16.133 8.82265 17.2639C9.954 18.3947 11.4884 19.03 13.0884 19.03C14.6884 19.03 16.2228 18.3947 17.3541 17.2639C18.4855 16.133 19.1211 14.5993 19.1211 13C19.1211 11.4007 18.4855 9.86698 17.3541 8.73613C16.2228 7.60528 14.6884 6.96998 13.0884 6.96998ZM13.0884 8.40911C14.3065 8.40911 15.4747 8.89279 16.3361 9.75375C17.1974 10.6147 17.6813 11.7824 17.6813 13C17.6813 14.2176 17.1974 15.3853 16.3361 16.2463C15.4747 17.1072 14.3065 17.5909 13.0884 17.5909C11.8703 17.5909 10.7021 17.1072 9.84072 16.2463C8.97938 15.3853 8.49549 14.2176 8.49549 13C8.49549 11.7824 8.97938 10.6147 9.84072 9.75375C10.7021 8.89279 11.8703 8.40911 13.0884 8.40911ZM20.3935 3.98284C20.1681 3.98284 19.945 4.02721 19.7368 4.11341C19.5286 4.19961 19.3394 4.32596 19.1801 4.48524C19.0207 4.64451 18.8943 4.83361 18.8081 5.04171C18.7218 5.24982 18.6775 5.47287 18.6775 5.69812C18.6775 5.92337 18.7218 6.14642 18.8081 6.35453C18.8943 6.56264 19.0207 6.75173 19.1801 6.91101C19.3394 7.07028 19.5286 7.19663 19.7368 7.28283C19.945 7.36903 20.1681 7.4134 20.3935 7.4134C20.8486 7.4134 21.2851 7.23268 21.6069 6.91101C21.9287 6.58933 22.1095 6.15304 22.1095 5.69812C22.1095 5.2432 21.9287 4.80691 21.6069 4.48524C21.2851 4.16356 20.8486 3.98284 20.3935 3.98284Z" fill="white"/>
</svg>
