<svg width="1771" height="440" viewBox="0 0 1771 440" fill="none" xmlns="http://www.w3.org/2000/svg">
<path d="M167.002 92.2496L162.31 69.5129L251.813 51.107C254.219 50.1446 255.543 48.701 255.783 46.7762L259.392 46.4153L264.445 72.0392L167.002 92.2496ZM249.848 184.279C240.705 184.279 233.006 182.114 226.75 177.783C220.735 173.452 216.164 168.159 213.036 161.903C210.149 168.399 205.698 173.813 199.683 178.144C193.668 182.234 186.089 184.279 176.946 184.279C163.954 184.279 153.969 180.069 146.992 171.648C140.014 163.227 136.525 154.445 136.525 145.302C136.525 135.918 140.014 127.137 146.992 118.956C154.21 110.776 164.194 106.686 176.946 106.686C186.089 106.686 193.668 108.731 199.683 112.821C205.698 116.911 210.149 122.204 213.036 128.701C216.164 122.445 220.735 117.272 226.75 113.182C233.006 108.851 240.705 106.686 249.848 106.686C258.51 106.686 265.848 108.61 271.863 112.46C277.878 116.069 282.329 120.881 285.216 126.896C288.344 133.633 289.908 139.768 289.908 145.302C289.908 154.445 286.419 163.227 279.442 171.648C272.705 180.069 262.84 184.279 249.848 184.279ZM279.803 329H107.293C88.5257 329 70.4807 324.429 53.1575 315.286C35.5937 304.94 22.481 291.587 13.8194 275.226C5.1578 258.865 0.827 242.264 0.827 225.422C0.827 208.339 5.1578 191.617 13.8194 175.257C22.481 158.896 35.5937 145.542 53.1575 135.197C69.5183 125.332 87.5633 120.4 107.293 120.4C117.638 120.4 122.811 115.588 122.811 105.964H134.721V199.437H112.706C104.766 199.437 98.6309 202.204 94.3001 207.738C89.9693 213.271 87.8039 219.166 87.8039 225.422C87.8039 231.437 89.9693 237.091 94.3001 242.384C98.8715 247.677 105.007 250.324 112.706 250.324H277.998C286.419 250.324 292.915 247.316 297.487 241.301C302.299 235.286 304.705 228.91 304.705 222.174V143.497C304.705 140.129 303.382 136.881 300.735 133.753C298.329 130.625 295.201 129.061 291.352 129.061H288.825V118.956H386.629V222.174C386.629 237.572 382.178 253.572 373.276 270.173C364.374 286.775 351.862 300.729 335.742 312.038C319.863 323.346 301.216 329 279.803 329ZM539.617 250.324V329H515.076C493.903 329 475.256 323.346 459.136 312.038C443.016 300.729 430.505 286.775 421.603 270.173C412.7 253.572 408.249 237.572 408.249 222.174L408.61 0.941891H506.053V11.0471H503.527C499.677 11.0471 496.549 12.611 494.143 15.7388C491.737 18.8666 490.534 22.1147 490.534 25.4831L490.174 222.174C490.174 228.91 492.58 235.286 497.392 241.301C502.204 247.316 508.7 250.324 516.88 250.324H539.617ZM730.096 250.324V329H532.323V250.324H730.096ZM920.767 250.324V329H722.994V250.324H920.767ZM1077.51 222.174V198.715H1048.28C1040.34 198.715 1034.08 201.482 1029.51 207.016C1025.18 212.55 1023.02 218.565 1023.02 225.061C1023.02 232.038 1025.42 238.053 1030.24 243.106C1035.05 247.918 1041.9 250.324 1050.81 250.324C1059.23 250.324 1065.72 247.316 1070.29 241.301C1075.11 235.286 1077.51 228.91 1077.51 222.174ZM1055.5 329H910.055V250.324H944.341C942.416 242.143 941.454 233.722 941.454 225.061C941.454 208.7 945.664 192.459 954.085 176.339C962.747 159.978 975.017 146.505 990.897 135.918C1006.78 125.091 1025.9 119.678 1048.28 119.678H1134.54C1141.51 119.678 1145.72 115.588 1147.17 107.407V105.242H1159.44V226.143C1159.44 230.715 1161.24 235.286 1164.85 239.858C1168.46 244.188 1173.03 247.316 1178.56 249.241C1180.25 249.722 1181.45 249.963 1182.17 249.963C1182.9 250.203 1184.34 250.324 1186.5 250.324L1191.92 251.046L1192.64 329H1186.87C1174.35 329 1162.08 326.594 1150.05 321.782C1138.02 316.97 1127.56 310.835 1118.66 303.376C1110.72 310.835 1101.33 316.97 1090.51 321.782C1079.92 326.594 1068.25 329 1055.5 329ZM1298.72 347.045C1311.47 347.045 1321.34 351.135 1328.31 359.316C1335.53 367.496 1339.14 376.278 1339.14 385.661C1339.14 394.804 1335.65 403.586 1328.67 412.007C1321.7 420.428 1311.71 424.639 1298.72 424.639C1289.82 424.639 1282.24 422.473 1275.98 418.142C1269.73 413.812 1265.16 408.398 1262.27 401.902C1259.14 408.398 1254.57 413.812 1248.55 418.142C1242.54 422.473 1234.96 424.639 1225.82 424.639C1212.83 424.639 1202.84 420.428 1195.86 412.007C1188.89 403.586 1185.4 394.804 1185.4 385.661C1185.4 376.278 1188.89 367.496 1195.86 359.316C1203.08 351.135 1213.07 347.045 1225.82 347.045C1234.96 347.045 1242.54 349.21 1248.55 353.541C1254.57 357.872 1259.14 363.165 1262.27 369.421C1265.16 363.165 1269.73 357.872 1275.98 353.541C1282.24 349.21 1289.82 347.045 1298.72 347.045ZM1224.37 329H1185.4V250.324H1222.57C1230.99 250.324 1237.49 247.316 1242.06 241.301C1246.87 235.286 1249.28 228.91 1249.28 222.174V143.497C1249.28 140.129 1247.95 136.881 1245.31 133.753C1242.9 130.625 1239.77 129.061 1235.92 129.061H1233.4V118.956H1331.2V222.174C1331.2 237.572 1326.63 253.572 1317.49 270.173C1308.58 286.775 1296.07 300.729 1279.95 312.038C1264.07 323.346 1245.55 329 1224.37 329ZM1365.95 439.796H1353.68V344.519H1376.78C1385.2 344.519 1391.7 341.391 1396.27 335.135C1400.84 329.12 1403.12 322.865 1403.12 316.369V143.497C1403.12 140.129 1401.92 136.881 1399.51 133.753C1397.11 130.625 1393.98 129.061 1390.13 129.061H1387.61V118.956H1485.05V227.226C1485.05 231.798 1487.69 236.85 1492.99 242.384C1497.56 247.437 1503.81 250.083 1511.75 250.324L1517.53 251.046L1518.25 329H1512.12C1502.49 329 1493.11 327.436 1483.97 324.308C1482.04 340.669 1476.51 356.188 1467.36 370.864C1458.22 385.782 1445.83 398.413 1430.19 408.759C1414.79 418.142 1397.83 422.954 1379.3 423.195C1375.45 422.954 1372.45 424.278 1370.28 427.165C1367.39 430.052 1365.95 433.541 1365.95 437.631V439.796ZM1694.19 360.398L1698.88 382.774L1609.38 401.18C1606.97 402.383 1605.65 403.947 1605.41 405.872L1601.8 406.233L1596.75 380.609L1694.19 360.398ZM1694.19 360.398L1698.88 382.774L1609.38 401.18C1606.97 402.383 1605.65 403.947 1605.41 405.872L1601.8 406.233L1596.75 380.609L1694.19 360.398ZM1688.25 222.174V198.715H1659.02C1650.84 198.715 1644.47 201.482 1639.89 207.016C1635.56 212.55 1633.4 218.565 1633.4 225.061C1633.4 231.557 1635.8 237.452 1640.62 242.745C1645.43 247.797 1651.92 250.324 1660.1 250.324C1669.01 250.324 1675.86 247.437 1680.68 241.662C1685.73 235.647 1688.25 229.151 1688.25 222.174ZM1770.18 105.242V222.174C1770.18 238.294 1765.01 255.136 1754.66 272.7C1744.55 290.263 1731.32 304.338 1714.96 314.925C1697.64 324.308 1679.35 329 1660.1 329H1511.05L1511.77 250.324H1554.72C1552.8 242.143 1551.83 233.722 1551.83 225.061C1551.83 208.7 1556.04 192.459 1564.47 176.339C1573.13 159.978 1585.4 146.505 1601.28 135.918C1617.4 125.091 1636.65 119.678 1659.02 119.678H1745.28C1752.49 119.678 1756.71 115.588 1757.91 107.407V105.242H1770.18ZM1682.84 28.7312C1696.07 28.7312 1706.06 32.9417 1712.8 41.3627C1719.77 49.5431 1723.26 58.325 1723.26 67.7084C1723.26 76.8512 1719.77 85.6331 1712.8 94.0541C1705.82 102.475 1695.83 106.686 1682.84 106.686C1669.85 106.686 1659.86 102.475 1652.89 94.0541C1645.91 85.3925 1642.42 76.6106 1642.42 67.7084C1642.42 58.325 1645.91 49.5431 1652.89 41.3627C1659.86 32.9417 1669.85 28.7312 1682.84 28.7312Z" fill="white"/>
</svg>
