<svg width="27" height="22" viewBox="0 0 27 22" fill="none" xmlns="http://www.w3.org/2000/svg">
<path d="M18.4853 0.656742L18.1971 0.667363C16.7624 0.76027 15.4149 1.38803 14.421 2.42645C13.4904 3.38908 12.9124 4.63771 12.7807 5.96986L12.7581 6.25662L12.7409 6.5779L11.9878 6.42124C8.24757 5.60476 5.98432 4.41124 3.567 1.98568L3.28675 1.70025L2.69172 1.11079L2.3331 1.81708C1.31969 3.73415 1.3768 5.76142 2.47522 7.5922L2.63062 7.84046L3.49129 9.14684L2.06215 8.08475L1.928 7.99845C1.82447 7.94138 1.70773 7.91256 1.58952 7.91489C1.47132 7.91722 1.3558 7.95062 1.25461 8.01173C1.06733 8.11395 0.945136 8.36089 0.955762 8.60915L0.969044 8.71536L0.975685 8.74324C1.33297 9.9288 2.02762 11.0639 2.97728 12.0278L4.28157 13.0739L2.90024 12.7194L2.78336 12.6743C2.6722 12.6407 2.55495 12.6322 2.4401 12.6494C2.32525 12.6666 2.21566 12.7091 2.11926 12.7739C2.00436 12.8532 1.91975 12.9691 1.87922 13.1027C1.8387 13.2363 1.84466 13.3796 1.89613 13.5094C2.52702 15.2658 3.63872 16.3916 5.29233 16.9439L5.5739 17.0315L6.33496 17.2479L5.60445 17.5533C4.43298 18.0405 3.03173 18.3273 1.28781 18.3592C1.13428 18.362 0.985072 18.4105 0.859225 18.4985C0.733378 18.5864 0.636592 18.7099 0.58121 18.853C0.540427 18.9664 0.528906 19.0883 0.54771 19.2073C0.566514 19.3264 0.615037 19.4388 0.688794 19.5341L0.773799 19.6323L0.803019 19.6562C2.40084 20.9307 5.85947 21.6742 10.2797 21.6742C17.9075 21.6742 24.1541 15.1012 24.3878 6.90184L24.3945 6.3854L24.5326 6.30574C25.3893 5.81187 26.0521 4.99539 26.4279 3.9864L26.5169 3.7315L26.5448 3.58546C26.5577 3.48474 26.5479 3.38242 26.5162 3.28596C26.4845 3.18949 26.4316 3.10132 26.3615 3.02786C26.2627 2.93345 26.1377 2.87099 26.0029 2.84863L25.8967 2.83934L25.4318 2.83005L25.6629 2.42512C25.8329 2.12774 25.9763 1.8184 26.0932 1.49579C26.1942 1.23824 26.149 1.00458 25.9697 0.829332C25.8774 0.74181 25.761 0.684005 25.6355 0.663411C25.51 0.642816 25.3812 0.660381 25.2658 0.71383L24.2231 1.14929C23.8393 1.30727 23.5125 1.43738 23.219 1.54757L22.7223 1.72813L22.268 1.87682L22.0542 1.85558C20.8814 1.21567 19.6594 0.735072 18.7164 0.664708L18.4853 0.656742ZM18.4906 1.79318H18.6301C19.1614 1.81575 19.9052 2.068 20.8694 2.54328L21.8523 2.88846C22.8684 2.91767 23.2429 2.55656 23.6613 2.43309L24.2484 2.15429C24.6123 2.05339 24.4874 2.51142 24.2484 2.88846C24.1342 3.0501 24.0048 3.20037 23.8619 3.3372L23.575 3.61732L23.2084 3.95852L25.7944 3.64653L23.2084 6.01632L23.2217 6.14245V6.40664C23.2217 10.1651 21.8696 13.7085 19.4137 16.3757C16.9672 19.0336 13.7197 20.5033 10.2797 20.5033C8.07623 20.5033 5.79704 20.3015 3.89905 19.7717L2.77008 19.4558L3.92163 19.234C5.77181 18.8756 7.1 18.2264 8.40961 17.2214L8.91698 16.8576C9.21582 16.6452 9.06441 16.1805 8.69517 16.1805H8.09881C6.13972 16.1805 4.83808 15.7584 3.9628 14.8091L3.46871 14.2728L4.3865 14.363C4.64417 14.3816 4.90848 14.3869 5.21795 14.3803L5.72001 14.3644L5.86611 14.3458C6.59396 14.3458 7.33775 14.1081 8.09748 13.6342C8.10219 13.5993 8.09436 13.5639 8.07539 13.5342C8.05642 13.5045 8.02753 13.4826 7.99388 13.4722C6.61654 13.0766 3.59489 11.5206 3.04502 10.2766L2.92681 9.64867L3.9628 10.0403C5.22326 10.6364 6.17691 10.7599 6.82639 10.4107C6.85561 10.4107 6.31902 9.93544 5.21928 8.98752C3.37972 7.30543 2.36498 5.8424 2.92415 3.56422L3.03572 3.1115L3.38105 3.42615C6.00822 5.83046 8.65399 7.01336 13.219 7.83383L13.923 7.94933V6.56861C13.9193 5.32223 14.3975 4.12262 15.2578 3.22037C15.6742 2.77927 16.1745 2.4257 16.7294 2.18041C17.2843 1.93511 17.8827 1.80301 18.4893 1.79185L18.4906 1.79318Z" fill="white"/>
</svg>
